<?xml version="1.0" encoding="UTF-8" standalone="no"?>
<!-- Created with Inkscape (http://www.inkscape.org/) -->

<svg
   xmlns:dc="http://purl.org/dc/elements/1.1/"
   xmlns:cc="http://creativecommons.org/ns#"
   xmlns:rdf="http://www.w3.org/1999/02/22-rdf-syntax-ns#"
   xmlns:svg="http://www.w3.org/2000/svg"
   xmlns="http://www.w3.org/2000/svg"
   xmlns:xlink="http://www.w3.org/1999/xlink"
   xmlns:sodipodi="http://sodipodi.sourceforge.net/DTD/sodipodi-0.dtd"
   xmlns:inkscape="http://www.inkscape.org/namespaces/inkscape"
   width="210mm"
   height="297mm"
   viewBox="0 0 210 297"
   version="1.1"
   id="svg8"
   inkscape:version="0.92.3 (2405546, 2018-03-11)"
   sodipodi:docname="LogoDiego.svg">
  <defs
     id="defs2">
    <pattern
       inkscape:collect="always"
       xlink:href="#Strips1_1"
       id="pattern7779"
       patternTransform="matrix(9.8439311,0,0,10.279557,0.64164966,-0.85748071)" />
    <linearGradient
       inkscape:collect="always"
       id="linearGradient7631">
      <stop
         style="stop-color:#f51b00;stop-opacity:1;"
         offset="0"
         id="stop7627" />
      <stop
         style="stop-color:#f51b00;stop-opacity:0;"
         offset="1"
         id="stop7629" />
    </linearGradient>
    <pattern
       inkscape:isstock="true"
       inkscape:stockid="Stripes 1:1"
       id="Strips1_1"
       patternTransform="translate(0,0) scale(10,10)"
       height="1"
       width="2"
       patternUnits="userSpaceOnUse"
       inkscape:collect="always">
      <rect
         id="rect5374"
         height="2"
         width="1"
         y="-0.5"
         x="0"
         style="fill:black;stroke:none" />
    </pattern>
    <linearGradient
       inkscape:collect="always"
       id="linearGradient7575">
      <stop
         style="stop-color:#ffbc55;stop-opacity:1;"
         offset="0"
         id="stop7571" />
      <stop
         style="stop-color:#ffbc55;stop-opacity:0;"
         offset="1"
         id="stop7573" />
    </linearGradient>
    <marker
       inkscape:stockid="Arrow1Lstart"
       orient="auto"
       refY="0.0"
       refX="0.0"
       id="Arrow1Lstart"
       style="overflow:visible"
       inkscape:isstock="true">
      <path
         id="path6092"
         d="M 0.0,0.0 L 5.0,-5.0 L -12.5,0.0 L 5.0,5.0 L 0.0,0.0 z "
         style="fill-rule:evenodd;stroke:#000000;stroke-width:1.0pt"
         transform="scale(0.8) translate(12.5,0)" />
    </marker>
    <meshgradient
       inkscape:collect="always"
       id="meshgradient6416"
       gradientUnits="userSpaceOnUse"
       x="28.865107"
       y="54.847221">
      <meshrow
         id="meshrow6418">
        <meshpatch
           id="meshpatch6420">
          <stop
             path="c 3.1841,0  6.36821,0  9.55231,0"
             style="stop-color:#ffffff;stop-opacity:1"
             id="stop6422" />
          <stop
             path="c 0,3.1609  0,6.3218  0,9.4827"
             style="stop-color:#ff0000;stop-opacity:1"
             id="stop6424" />
          <stop
             path="c -3.1841,0  -6.36821,0  -9.55231,0"
             style="stop-color:#ffffff;stop-opacity:1"
             id="stop6426" />
          <stop
             path="c 0,-3.1609  0,-6.3218  0,-9.4827"
             style="stop-color:#ff0000;stop-opacity:1"
             id="stop6428" />
        </meshpatch>
      </meshrow>
    </meshgradient>
    <meshgradient
       inkscape:collect="always"
       id="meshgradient6444"
       gradientUnits="userSpaceOnUse"
       x="18.132965"
       y="43.833622"
       gradientTransform="matrix(0.44170928,0,0,0.17054328,-3.2672378,23.594452)">
      <meshrow
         id="meshrow6446">
        <meshpatch
           id="meshpatch6448">
          <stop
             path="c 56.9453,0  113.891,0  170.836,0"
             style="stop-color:#ffffff;stop-opacity:1"
             id="stop6450" />
          <stop
             path="c 0,12.0913  0,24.1825  0,36.2738"
             style="stop-color:#ff0020;stop-opacity:1"
             id="stop6452" />
          <stop
             path="c -56.9453,0  -113.891,0  -170.836,0"
             style="stop-color:#ffffff;stop-opacity:1"
             id="stop6454" />
          <stop
             path="c 0,-12.0913  0,-24.1825  0,-36.2738"
             style="stop-color:#ff0020;stop-opacity:1"
             id="stop6456" />
        </meshpatch>
      </meshrow>
    </meshgradient>
    <meshgradient
       inkscape:collect="always"
       id="meshgradient7473"
       gradientUnits="userSpaceOnUse"
       x="28.865107"
       y="54.847221">
      <meshrow
         id="meshrow7485">
        <meshpatch
           id="meshpatch7483">
          <stop
             id="stop7475"
             style="stop-color:#ffffff;stop-opacity:1"
             path="c 3.1841,0  6.36821,0  9.55231,0" />
          <stop
             id="stop7477"
             style="stop-color:#ff0000;stop-opacity:1"
             path="c 0,3.1609  0,6.3218  0,9.4827" />
          <stop
             id="stop7479"
             style="stop-color:#ffffff;stop-opacity:1"
             path="c -3.1841,0  -6.36821,0  -9.55231,0" />
          <stop
             id="stop7481"
             style="stop-color:#ff0000;stop-opacity:1"
             path="c 0,-3.1609  0,-6.3218  0,-9.4827" />
        </meshpatch>
      </meshrow>
    </meshgradient>
    <linearGradient
       inkscape:collect="always"
       xlink:href="#linearGradient7575"
       id="linearGradient7577"
       x1="22.823986"
       y1="24.790764"
       x2="26.046165"
       y2="24.790764"
       gradientUnits="userSpaceOnUse" />
    <linearGradient
       inkscape:collect="always"
       xlink:href="#linearGradient7631"
       id="linearGradient7633"
       x1="22.823986"
       y1="24.790764"
       x2="26.046165"
       y2="24.790764"
       gradientUnits="userSpaceOnUse" />
    <meshgradient
       inkscape:collect="always"
       id="meshgradient7645"
       gradientUnits="userSpaceOnUse"
       x="55.376495"
       y="14.837989">
      <meshrow
         id="meshrow7647">
        <meshpatch
           id="meshpatch7649">
          <stop
             path="c 3.49134,0  6.98269,0  10.474,0"
             style="stop-color:#ffffff;stop-opacity:1"
             id="stop7651" />
          <stop
             path="c 0,5.66222  0,11.3244  0,16.9867"
             style="stop-color:#f10000;stop-opacity:1"
             id="stop7653" />
          <stop
             path="c -3.49134,0  -6.98269,0  -10.474,0"
             style="stop-color:#ffffff;stop-opacity:1"
             id="stop7655" />
          <stop
             path="c 0,-5.66222  0,-11.3244  0,-16.9867"
             style="stop-color:#f10000;stop-opacity:1"
             id="stop7657" />
        </meshpatch>
      </meshrow>
    </meshgradient>
  </defs>
  <sodipodi:namedview
     id="base"
     pagecolor="#ffffff"
     bordercolor="#666666"
     borderopacity="1.0"
     inkscape:pageopacity="0.0"
     inkscape:pageshadow="2"
     inkscape:zoom="1.979899"
     inkscape:cx="180.62921"
     inkscape:cy="983.847"
     inkscape:document-units="mm"
     inkscape:current-layer="layer1"
     showgrid="false"
     inkscape:snap-text-baseline="true"
     inkscape:window-width="1366"
     inkscape:window-height="705"
     inkscape:window-x="-8"
     inkscape:window-y="-8"
     inkscape:window-maximized="1" />
  <metadata
     id="metadata5">
    <rdf:RDF>
      <cc:Work
         rdf:about="">
        <dc:format>image/svg+xml</dc:format>
        <dc:type
           rdf:resource="http://purl.org/dc/dcmitype/StillImage" />
        <dc:title></dc:title>
      </cc:Work>
    </rdf:RDF>
  </metadata>
  <g
     inkscape:label="Capa 1"
     inkscape:groupmode="layer"
     id="layer1">
    <path
       sodipodi:type="spiral"
       style="fill:url(#meshgradient6416);fill-opacity:1;fill-rule:evenodd;stroke:#f50000;stroke-width:0.26458332;stroke-opacity:1"
       id="path3795"
       sodipodi:cx="33.675957"
       sodipodi:cy="59.130116"
       sodipodi:expansion="1"
       sodipodi:revolution="2.9937401"
       sodipodi:radius="5.5034165"
       sodipodi:argument="-16.17573"
       sodipodi:t0="0.105742"
       d="m 33.647144,58.548887 c 0.432378,-0.24492 0.929369,0.11288 1.069055,0.529661 0.232751,0.694464 -0.299237,1.386241 -0.96592,1.550823 -0.948049,0.234041 -1.849071,-0.485844 -2.032591,-1.402179 -0.240253,-1.199607 0.672357,-2.314391 1.838438,-2.514358 1.45045,-0.248734 2.781002,0.85878 2.996126,2.274696 0.258434,1.700974 -1.045144,3.248372 -2.710955,3.477894 -1.951333,0.268863 -3.716225,-1.231469 -3.959662,-3.147214 -0.279762,-2.201597 1.417767,-4.184404 3.583472,-4.44143 2.451803,-0.29098 4.652817,1.604047 4.923199,4.019732 0.302424,2.701968 -1.790315,5.121398 -4.455991,5.404966 -2.010251,0.213845 -3.997645,-0.793485 -5.067209,-2.498666"
       transform="matrix(0.72921524,0,0,0.68126183,-13.872892,-16.086995)" />
    <path
       style="fill:#ff0020;fill-opacity:1;stroke:url(#meshgradient6444);stroke-width:0.40154105;stroke-linecap:square;stroke-miterlimit:4;stroke-dasharray:none;stroke-dashoffset:0;stroke-opacity:1"
       id="path6434"
       d="m 7.7611287,36.199099 c 1.4566252,-0.108385 2.8867893,-0.265102 4.3180873,-0.41488 2.302795,-0.257801 4.597306,-0.526596 6.887571,-0.800493 2.077706,-0.276584 4.229587,-0.442271 6.406453,-0.544436 0.825682,-0.0052 1.893494,-0.151352 2.627125,0.06547 0.08173,0.02416 0.143098,0.05714 0.214648,0.0857 0.452952,0.260934 0.19188,0.556441 -0.02823,0.831023 -0.161403,0.188232 -0.372594,0.369084 -0.55764,0.553832 -0.05964,0.05954 -0.221682,0.208769 -0.224419,0.284312 -9.51e-4,0.02563 0.04185,0.04866 0.06278,0.073 0.07962,0.0094 0.155996,0.02507 0.238853,0.02839 1.380678,0.05556 3.452038,-0.349304 4.683883,-0.547634 3.653756,-0.64717 7.298863,-1.301371 10.962197,-1.940501 2.271083,-0.417293 4.650271,-0.728645 7.126993,-0.895578 0.884587,-0.03058 1.844533,-0.13034 2.71172,-0.01652 0.620583,0.146733 0.548031,0.436131 0.509431,0.682247 -0.01112,0.294355 -0.436805,0.565158 -0.437427,0.857019 0.03813,0.02334 0.05677,0.05369 0.114412,0.07002 0.187399,0.05304 0.779833,0.09211 0.916804,0.0993 1.205583,0.06325 2.32719,-0.0033 3.521129,-0.07276 4.103177,-0.367676 7.891559,-1.115427 11.672975,-1.810825 2.867578,-0.528851 5.670549,-1.074197 8.710045,-1.44112 0.591604,-0.07143 1.198513,-0.115439 1.809694,-0.15134 0,0 -2.735897,0.792168 -2.735897,0.792168 v 0 c -0.56563,0.0334 -1.128234,0.07308 -1.677706,0.13651 -2.922717,0.341477 -5.649297,0.869994 -8.40541,1.370941 -3.853089,0.704271 -7.710045,1.463508 -11.890278,1.832293 -1.263695,0.0751 -2.487284,0.153301 -3.767147,0.08391 -0.40245,-0.02182 -0.840691,-0.05456 -1.149985,-0.168388 -0.09166,-0.03372 -0.128153,-0.08433 -0.192232,-0.126501 -0.01298,-0.04565 -0.04706,-0.09113 -0.03896,-0.136943 0.0079,-0.04466 0.05577,-0.08689 0.08614,-0.130089 0.141984,-0.201971 0.33774,-0.39984 0.393368,-0.609339 0.02747,-0.167509 0.178142,-0.431538 -0.304964,-0.519362 -0.820727,-0.06967 -1.685369,0.0059 -2.507739,0.03261 -2.380799,0.155492 -4.662016,0.455794 -6.848513,0.851612 -3.700317,0.636727 -7.370097,1.298561 -11.040184,1.960725 -0.782837,0.128203 -1.827615,0.307741 -2.653211,0.413631 -0.705175,0.09045 -1.703639,0.218787 -2.458648,0.10986 -0.147023,-0.02121 -0.253922,-0.07126 -0.380883,-0.106876 -0.04394,-0.04641 -0.120787,-0.09002 -0.131825,-0.139255 -0.04735,-0.211216 0.667602,-0.634907 0.792851,-0.856809 0.181325,-0.216629 0.478184,-0.47662 0.156481,-0.692701 -0.634189,-0.231778 -1.768405,-0.0899 -2.541676,-0.08682 -2.137367,0.09456 -4.240945,0.265078 -6.278659,0.536051 -2.304189,0.277746 -4.613872,0.548852 -6.9322338,0.808462 -1.5107295,0.161788 -3.0180294,0.35016 -4.5687184,0.44366 0,0 2.8289486,-0.793567 2.8289486,-0.793567 z"
       inkscape:connector-curvature="0" />
    <flowRoot
       xml:space="preserve"
       id="flowRoot7368"
       style="fill:black;fill-opacity:1;stroke:none;font-family:sans-serif;font-style:normal;font-weight:normal;font-size:40px;line-height:1.25;letter-spacing:0px;word-spacing:0px"><flowRegion
         id="flowRegion7370"><rect
           id="rect7372"
           width="34.345188"
           height="74.751289"
           x="221.2234"
           y="64.889969" /></flowRegion><flowPara
         id="flowPara7374"></flowPara></flowRoot>    <path
       sodipodi:type="spiral"
       style="fill:url(#meshgradient7473);fill-opacity:1;fill-rule:evenodd;stroke:#f50000;stroke-width:0.26458332;stroke-opacity:1"
       id="path3795-2"
       sodipodi:cx="33.675957"
       sodipodi:cy="59.130116"
       sodipodi:expansion="1"
       sodipodi:revolution="2.9937401"
       sodipodi:radius="5.5034165"
       sodipodi:argument="-16.17573"
       sodipodi:t0="0.105742"
       d="m 33.647144,58.548887 c 0.432378,-0.24492 0.929369,0.11288 1.069055,0.529661 0.232751,0.694464 -0.299237,1.386241 -0.96592,1.550823 -0.948049,0.234041 -1.849071,-0.485844 -2.032591,-1.402179 -0.240253,-1.199607 0.672357,-2.314391 1.838438,-2.514358 1.45045,-0.248734 2.781002,0.85878 2.996126,2.274696 0.258434,1.700974 -1.045144,3.248372 -2.710955,3.477894 -1.951333,0.268863 -3.716225,-1.231469 -3.959662,-3.147214 -0.279762,-2.201597 1.417767,-4.184404 3.583472,-4.44143 2.451803,-0.29098 4.652817,1.604047 4.923199,4.019732 0.302424,2.701968 -1.790315,5.121398 -4.455991,5.404966 -2.010251,0.213845 -3.997645,-0.793485 -5.067209,-2.498666"
       transform="matrix(0.72921524,0,0,0.68126184,50.029086,-17.546687)" />
    <path
       style="fill:url(#linearGradient7577);fill-opacity:1;stroke:url(#linearGradient7633);stroke-width:1.46300006;stroke-linecap:square;stroke-miterlimit:4;stroke-dasharray:none;stroke-dashoffset:0;stroke-opacity:1"
       id="path7487"
       d="m 25.295438,19.860612 c -0.0097,0.373837 -0.006,0.747881 -0.0043,1.1218 0.0015,0.382613 -0.0015,0.765185 -0.004,1.147785 -0.0029,0.426444 0.0014,0.852892 0.0041,1.279326 0.002,0.380995 -0.0031,0.761976 -0.003,1.142973 -0.002,0.442676 -0.0014,0.885335 0.0013,1.328004 0.0033,0.322733 0.0028,0.645466 0.0025,0.968207 0.01403,0.283057 -0.05697,0.558925 -0.09186,0.83784 -0.0412,0.295918 -0.122774,0.582671 -0.201241,0.87008 -0.07273,0.244232 -0.194544,0.472588 -0.389576,0.638612 0,0 -1.478027,0.575532 -1.478027,0.575532 v 0 c 0.228712,-0.105278 0.345658,-0.30547 0.440598,-0.532882 0.07237,-0.283136 0.163831,-0.560231 0.211732,-0.8495 0.02778,-0.276069 0.09923,-0.54592 0.10182,-0.823008 -3.17e-4,-0.323598 -7.4e-4,-0.647194 0.0025,-0.970788 0.0027,-0.443109 0.0033,-0.886209 0.0013,-1.329324 1.81e-4,-0.379991 -0.005,-0.759964 -0.003,-1.139952 0.0027,-0.427825 0.007,-0.855663 0.0041,-1.283498 -0.0026,-0.381231 -0.0055,-0.762435 -0.004,-1.14368 0.0017,-0.372459 0.0055,-0.745049 -0.0043,-1.117423 0,0 1.413283,-0.720104 1.413283,-0.720104 z"
       inkscape:connector-curvature="0" />
    <path
       style="fill:none;fill-opacity:1;stroke:#de1616;stroke-width:1.46300006;stroke-linecap:square;stroke-miterlimit:4;stroke-dasharray:none;stroke-dashoffset:0;stroke-opacity:1"
       id="path7489"
       d="m 21.243816,17.296542 c 0.398326,0.0015 0.796634,-0.0054 1.194894,-0.01192 0.373707,-0.005 0.747402,-0.0107 1.121121,-0.01482 0.414788,-0.0036 0.829548,-0.0097 1.244305,-0.01589 0.350614,-0.0059 0.701252,-0.01007 1.051876,-0.01535 0.345275,0.0042 0.691697,-0.02921 1.035373,0.0088 0.368729,0.02397 0.723072,0.120221 1.07675,0.220054 0.37206,0.133028 0.719112,0.317874 1.069222,0.498223 0.407289,0.230583 0.758355,0.529354 1.092083,0.853192 0.329052,0.337661 0.604511,0.711569 0.848687,1.113396 0.485216,0.809358 0.807244,1.698395 1.166777,2.566847 0.268636,0.708226 0.522703,1.422783 0.749325,2.145666 0.174043,0.466988 0.238415,0.956538 0.277173,1.449961 0.03281,0.582832 0.03882,1.166683 0.04988,1.750204 9.89e-4,0.389357 0.04458,0.778999 -0.02635,1.163819 -0.08892,0.359825 -0.360864,0.589679 -0.670294,0.769073 -0.521841,0.302539 -1.047876,0.597788 -1.571817,0.896682 -0.540126,0.203887 -1.11774,0.237426 -1.68819,0.266863 -0.563075,0.02215 -1.126666,0.0255 -1.690083,0.03119 -0.545057,-0.0031 -1.09083,0.03101 -1.635145,-0.0016 -0.440429,-0.03898 -0.881292,-0.06947 -1.323291,-0.08151 -0.334209,0.0217 -0.659867,-0.04465 -0.989043,-0.08746 -0.413433,-0.03463 -0.82898,-0.03156 -1.243518,-0.02906 -0.330774,0.0032 -0.66151,0.0094 -0.992253,0.01487 -0.269652,0.0043 -0.539312,0.0082 -0.808976,0.01168 -0.04433,5.86e-4 -0.08864,0.0012 -0.132968,0.0018 0,0 1.268281,-0.947081 1.268281,-0.947081 v 0 c 0.04432,-5.92e-4 0.08864,-0.0012 0.132958,-0.0018 0.269244,-0.0036 0.538486,-0.0073 0.807731,-0.01082 0.328258,-0.004 0.656534,-0.0075 0.984824,-0.0067 0.422081,0.0016 0.84572,-0.0022 1.26613,0.03966 0.322769,0.04764 0.644175,0.09292 0.971924,0.0797 0.439285,0.01813 0.876982,0.05618 1.315274,0.09003 0.5429,0.01905 1.086142,-0.006 1.629274,-0.0052 0.560984,-0.0054 1.122244,-0.0081 1.682715,-0.03494 0.563113,-0.03585 1.1329,-0.08435 1.655216,-0.316612 -0.363954,0.223777 -0.73,0.444189 -1.091864,0.671334 -0.06956,0.04366 0.145176,-0.07713 0.214753,-0.120763 0.03684,-0.0231 0.29624,-0.207821 0.332577,-0.245412 0.08,-0.08275 0.116364,-0.180278 0.163757,-0.281355 0.09501,-0.373415 0.04968,-0.756864 0.05636,-1.139122 -0.0042,-0.580594 -0.01038,-1.161609 -0.04512,-1.741316 -0.03715,-0.482478 -0.09856,-0.961906 -0.262792,-1.420318 -0.203271,-0.727201 -0.444973,-1.443807 -0.707076,-2.151747 -0.350468,-0.862349 -0.677029,-1.740361 -1.184689,-2.526585 -0.245262,-0.386197 -0.519136,-0.74691 -0.839312,-1.075253 -0.319516,-0.317108 -0.666235,-0.599939 -1.064387,-0.815135 -0.342435,-0.177163 -0.690217,-0.345976 -1.056617,-0.468284 -0.347102,-0.0973 -0.698992,-0.17393 -1.060092,-0.194375 -0.342317,-0.01655 -0.685197,0.0037 -1.027788,0.0038 -0.349132,0.0038 -0.698248,0.0088 -1.047384,0.01209 -0.415116,0.0047 -0.830233,0.0095 -1.245313,0.01665 -0.373551,0.0057 -0.747121,0.0097 -1.120683,0.01449 -0.401735,0.004 -0.80352,0.0077 -1.205116,0.01945 0,0 1.270939,-0.949017 1.270939,-0.949017 z"
       inkscape:connector-curvature="0" />
    <path
       style="fill:#f10000;fill-opacity:1;stroke:#f50000;stroke-width:1.46300006;stroke-linecap:square;stroke-miterlimit:4;stroke-dasharray:none;stroke-dashoffset:0;stroke-opacity:1"
       id="path7491"
       d="m 36.889967,29.499319 c -0.130971,0.232783 -0.303829,0.453602 -0.353195,0.722199 0.0528,-0.104519 0.204163,-0.152149 0.317358,-0.189773 0.159609,-0.02466 0.305083,-0.08086 0.456223,-0.134173 0,0 -1.251286,0.974172 -1.251286,0.974172 v 0 c -0.150209,0.05059 -0.305239,0.08286 -0.454104,0.137539 -0.192392,0.0798 -0.376547,0.174127 -0.489122,-0.06808 -0.01738,-0.287338 0.18624,-0.553646 0.328324,-0.787757 0,0 1.445802,-0.654127 1.445802,-0.654127 z"
       inkscape:connector-curvature="0" />
    <path
       style="fill:url(#pattern7779);fill-opacity:1;stroke:#e3243f;stroke-width:1.47168827;stroke-linecap:square;stroke-miterlimit:4;stroke-dasharray:none;stroke-dashoffset:0;stroke-opacity:1"
       id="path7493"
       d="m 47.389136,16.858372 c -0.423478,-0.0062 -0.847044,-0.0066 -1.27056,-0.006 -0.417172,9.52e-4 -0.834338,8.43e-4 -1.251507,0.0025 -0.320361,-0.01213 -0.634237,0.0016 -0.94311,0.09505 -0.356132,0.149421 -0.689656,0.342191 -1.021237,0.541209 -0.548974,0.269113 -0.270961,0.137392 1.091432,-0.666349 0.03628,-0.0214 -0.07118,0.04545 -0.104871,0.07104 -0.113452,0.0862 -0.208338,0.197627 -0.30543,0.302254 -0.23818,0.295202 -0.449661,0.613992 -0.650082,0.938111 -0.241767,0.375694 -0.403855,0.798189 -0.570721,1.213841 -0.134376,0.327799 -0.203797,0.673964 -0.235778,1.027159 -0.01989,0.304268 -0.0173,0.609479 -0.01592,0.91426 -0.02102,0.281993 -0.07824,0.558221 -0.104006,0.840022 -0.01737,0.50114 -0.03953,1.000444 -0.08555,1.499741 -0.03825,0.370152 -0.05895,0.741686 -0.06773,1.113761 -0.0061,0.374464 -0.0058,0.748996 -0.0053,1.123501 0.0013,0.320696 0.0028,0.64139 0.0035,0.962087 2.02e-4,0.288979 0.0021,0.577963 -0.0016,0.866922 0.01263,0.323439 0.05898,0.641242 0.171045,0.943472 0.106216,0.260739 0.309167,0.430422 0.528409,0.583511 0.199678,0.181984 0.465338,0.252073 0.707284,0.35219 0.314251,0.11746 0.644624,0.163873 0.975717,0.188727 0.336643,0.01694 0.673897,0.01567 1.010849,0.01539 0.335707,0.03001 0.650081,-0.04211 0.967235,-0.144309 0.04489,-0.02072 0.09094,-0.03892 0.134667,-0.06219 0.08957,-0.04766 0.351536,-0.203848 0.26446,-0.151384 -2.142698,1.291071 -1.450502,0.902368 -1.010045,0.579551 0.177455,-0.137861 0.330539,-0.305466 0.48676,-0.468148 0.193374,-0.185441 0.368673,-0.38908 0.545611,-0.591248 0.188358,-0.205961 0.40121,-0.384668 0.564513,-0.61378 0.151397,-0.230936 0.221926,-0.5072 0.283052,-0.776484 0.08594,-0.500666 0.08774,-1.011956 0.09553,-1.519022 0.0034,-0.421689 -0.0013,-0.843381 -0.0044,-1.265056 -0.0057,-0.28117 -0.09313,-0.537354 -0.21115,-0.785523 -0.127748,-0.189899 -0.329253,-0.321797 -0.528688,-0.417912 -0.240513,-0.09618 -0.499094,-0.106677 -0.753425,-0.115089 -0.263158,-0.0048 -0.526378,-0.0022 -0.789554,-9.26e-4 -0.253619,-0.0072 -0.498045,-0.0073 -0.744575,0.05462 -0.111008,0.01978 -0.212843,0.03801 -0.316131,0.0847 0,0 1.234903,-0.999256 1.234903,-0.999256 v 0 c 0.108359,-0.02473 0.217104,-0.04704 0.325943,-0.06938 0.251505,-0.04184 0.506143,-0.02221 0.759966,-0.02754 0.264712,-10e-4 0.529586,-0.0038 0.794142,0.0076 0.270474,0.01726 0.542854,0.04638 0.790473,0.171112 0.22331,0.125667 0.447882,0.27653 0.582698,0.507067 0.126593,0.270531 0.224865,0.548917 0.239857,0.853536 -0.0016,0.425249 -0.0049,0.850486 -0.01016,1.275703 -0.006,0.513277 -0.0069,1.029105 -0.06833,1.539077 -0.04882,0.286497 -0.121981,0.574466 -0.249819,0.83409 -0.156929,0.244137 -0.344753,0.447475 -0.562777,0.635206 -0.176876,0.20178 -0.34651,0.410312 -0.531972,0.60174 -0.172467,0.148106 -0.307044,0.337138 -0.484952,0.477803 -0.103379,0.09852 -0.07793,0.08432 -0.202073,0.160479 -0.570438,0.34994 -1.204131,0.828786 -1.866442,1.072034 -0.324057,0.09221 -0.652227,0.1214 -0.98809,0.103464 -0.341356,-5e-5 -0.683512,0.0062 -1.024042,-0.02317 -0.340142,-0.0373 -0.677452,-0.100945 -0.998993,-0.226817 -0.256722,-0.09962 -0.523929,-0.190413 -0.733578,-0.382336 -0.23492,-0.181527 -0.453021,-0.379156 -0.572825,-0.665902 -0.122818,-0.320052 -0.167706,-0.656815 -0.194981,-0.999268 -0.0037,-0.288353 -0.0016,-0.57673 -0.0019,-0.865106 5.21e-4,-0.32167 0.0016,-0.643341 0.0021,-0.965014 8.9e-5,-0.375679 -0.0013,-0.751393 0.0042,-1.127039 0.007,-0.377107 0.01847,-0.754046 0.0673,-1.128366 0.05353,-0.496383 0.0884,-0.991381 0.08163,-1.491441 0.01182,-0.280002 0.04996,-0.553466 0.105739,-0.827612 -0.0011,-0.308893 -0.0068,-0.618141 0.0088,-0.926737 0.0273,-0.369556 0.09018,-0.733553 0.227092,-1.07796 0.164394,-0.419281 0.322235,-0.848986 0.552249,-1.233877 0.19151,-0.336119 0.420537,-0.64642 0.637949,-0.964518 0.523017,-0.646679 1.187373,-0.988255 1.958347,-1.355816 0.333853,-0.200056 0.681255,-0.380974 1.048312,-0.504626 0.318531,-0.06488 0.638292,-0.07463 0.962321,-0.06223 0.415012,0.0016 0.830023,0.0015 1.245035,0.0025 0.428747,6.25e-4 0.857539,1.43e-4 1.286249,-0.006 0,0 -1.263206,0.958388 -1.263206,0.958388 z"
       inkscape:connector-curvature="0" />
    <path
       style="fill:#f10000;fill-opacity:1;stroke:#f50000;stroke-width:1.46300006;stroke-linecap:square;stroke-miterlimit:4;stroke-dasharray:none;stroke-dashoffset:0;stroke-opacity:1"
       id="path7495"
       d="m 51.523791,29.483026 c -0.08596,-0.313209 -0.195318,-0.629018 -0.115202,-0.952873 0.399968,-0.653442 1.234839,-0.990058 1.985703,-1.009648 0.286057,0.0273 0.399944,0.242176 0.463158,0.494774 0.06682,0.284858 0.01566,0.538715 -0.121626,0.791326 -0.451329,0.607719 -1.210998,1.040813 -1.969733,1.115087 0,0 1.26782,-0.949923 1.26782,-0.949923 v 0 c 0.581057,-0.117226 0.968621,-0.521452 -1.024374,0.671528 -0.04225,0.02529 0.29773,-0.132797 0.279762,-0.192746 0.145963,-0.237353 0.234982,-0.39338 0.171651,-0.683654 -0.04146,-0.203941 -0.112702,-0.325057 -0.342714,-0.3087 -0.08999,0.0075 -0.157904,0.01 -0.246116,0.02941 -0.03705,0.0082 -0.141697,0.05131 -0.10935,0.0315 2.099554,-1.285647 1.583759,-0.891241 1.085729,-0.654103 -0.166275,0.260691 -0.01082,0.582576 0.06615,0.852011 0,0 -1.390862,0.766009 -1.390862,0.766009 z"
       inkscape:connector-curvature="0" />
    <path
       style="fill:#f10000;fill-opacity:1;stroke:url(#meshgradient7645);stroke-width:1.46300006;stroke-linecap:square;stroke-miterlimit:4;stroke-dasharray:none;stroke-dashoffset:0;stroke-opacity:1"
       id="path7497"
       d="m 59.102812,15.617402 c -0.0199,0.646106 -0.01471,1.292687 -0.01296,1.93901 0.0026,0.675302 -0.0021,1.350602 -0.0016,2.025906 0.0011,0.54486 0.0055,1.089707 0.01043,1.634545 0.0205,0.287029 -0.04756,0.566997 -0.08787,0.848855 -0.07101,0.377722 -0.121983,0.757825 -0.151167,1.140951 -0.0016,0.360439 -0.08482,0.707806 -0.174583,1.053954 -0.0658,0.306987 -0.115781,0.616269 -0.185047,0.922784 -0.09722,0.351383 -0.132828,0.713992 -0.191354,1.072353 -0.06171,0.315381 -0.106069,0.632505 -0.194858,0.941864 -0.114284,0.296434 -0.168304,0.604173 -0.195283,0.919104 -0.01527,0.363387 -0.06482,0.724292 -0.14804,1.078092 -0.04359,0.259075 -0.131813,0.505926 -0.199422,0.758701 -0.01479,0.07167 -0.02852,0.129019 -0.03699,0.200597 -0.0021,0.01722 -0.0041,0.06253 0.0091,0.05124 0.08293,-0.07111 -0.06049,-0.0078 0.08802,-0.05835 0.308068,-0.06017 0.598665,-0.198295 0.896879,-0.299464 0.362326,-0.09434 0.723649,-0.196733 1.092904,-0.262157 0.278035,-0.08547 0.569791,-0.154474 0.830646,-0.285054 0.257056,-0.09335 0.51503,-0.186029 0.775306,-0.271423 0.26684,-0.106159 0.517853,-0.249761 0.787014,-0.348575 0.218255,-0.14056 0.483737,-0.139502 0.719195,-0.225864 0.255567,-0.08102 0.511628,-0.156311 0.775783,-0.20438 0.272489,-0.03307 0.554696,-0.09713 0.811937,0.02167 0.200245,0.08247 0.293486,0.281593 0.424024,0.439931 0,0 -1.363581,0.815363 -1.363581,0.815363 v 0 c -0.110791,-0.141046 -0.193939,-0.309782 -0.376166,-0.367246 -0.248218,-0.05696 -0.508854,0.0082 -0.755956,0.04496 -0.260803,0.05941 -0.515038,0.141544 -0.77125,0.217927 -0.245007,0.05601 -0.48386,0.122907 -0.70901,0.238223 -0.259646,0.117652 -0.519144,0.235572 -0.785738,0.337158 -0.257897,0.09572 -0.522999,0.170466 -0.773983,0.283896 -0.277691,0.09943 -0.556591,0.198934 -0.847024,0.25478 -0.36218,0.07424 -0.721656,0.167084 -1.074459,0.277146 -0.306425,0.109683 -0.609722,0.254939 -0.938517,0.276069 -0.261014,-0.03559 -0.258384,-0.238194 -0.207299,-0.450498 0.05646,-0.258414 0.165921,-0.499401 0.205309,-0.762154 0.08872,-0.345466 0.156091,-0.697918 0.162142,-1.055891 0.0213,-0.324287 0.05148,-0.646356 0.176186,-0.950542 0.105476,-0.300657 0.142759,-0.613079 0.203221,-0.924483 0.07626,-0.357434 0.0914,-0.727475 0.194522,-1.080483 0.06986,-0.306653 0.116546,-0.615925 0.177144,-0.924263 0.08767,-0.339371 0.197718,-0.675328 0.19128,-1.030822 0.02837,-0.383559 0.07136,-0.765163 0.140775,-1.143707 0.02773,-0.280691 0.114077,-0.553299 0.105817,-0.836714 0.0049,-0.548376 0.0094,-1.096762 0.01042,-1.645161 5.29e-4,-0.674734 -0.0043,-1.349463 -0.0016,-2.024197 0.0016,-0.641917 0.0071,-1.284107 -0.01297,-1.9258 0,0 1.408841,-0.71784 1.408841,-0.71784 z"
       inkscape:connector-curvature="0" />
    <path
       style="fill:#f10000;fill-opacity:1;stroke:#f50000;stroke-width:1.46300006;stroke-linecap:square;stroke-miterlimit:4;stroke-dasharray:none;stroke-dashoffset:0;stroke-opacity:1"
       id="path7501"
       d="m 68.373656,29.338611 c -0.291685,0.127386 -0.607232,0.247187 -0.917292,0.125833 -0.218583,-0.157895 -0.263636,-0.417579 -0.264258,-0.67129 0.01757,-0.09911 0.04584,-0.227952 0.143055,-0.284549 1.418151,-0.825682 0.914191,-0.742085 1.578703,-0.833205 0,0 -1.26161,0.960988 -1.26161,0.960988 v 0 c -0.574276,0.192424 -0.05052,0.02484 1.162248,-0.706514 0.0097,-0.0059 -0.266785,0.126706 -0.204171,0.152612 -0.02617,0.167761 -0.01588,0.399854 0.1549,0.485664 0.29876,0.04461 0.584827,-0.0944 0.847638,-0.220793 0,0 -1.239213,0.991254 -1.239213,0.991254 z"
       inkscape:connector-curvature="0" />
  </g>
</svg>
